# xmcd
#
# Track frame offsets:
#	150
#	19270
#	34493
#	54868
#	74901
#	92075
#	114881
#	128960
#	143149
#	154019
#	171708
#	183632
#	195439
#	215780
#	232628
#	249538
#	270948
#	285479
#	299701
#	314631
#
# Disc length: 4320 seconds
#
# Revision: 1
# Processed by: cddbd v1.5.2PL0 Copyright (c) Steve Scherf et al.
# Submitted via: EZCDAudioConverter 2.1.7.1
#
DISCID=3610de14
DTITLE=Sandy Denny - I've Always Kept A Unicorn 1/2
DYEAR=2016
DGENRE=
TTITLE0=The Strawbs and Sandy Denny - Who Knows Where The Time Goes [Acoustic]
TTITLE1=Sandy Denny - You Never Wanted Me
TTITLE2=Sandy Denny - Milk And Honey
TTITLE3=Fairport Convention - Autopsy [Demo]
TTITLE4=Fairport Convention - Now And Then [Demo]
TTITLE5=Fairport Convention - She Moves Through The Fair [Acoustic]
TTITLE6=Fairport Convention - Fotheringay [Acoustic]
TTITLE7=Fotheringay - The Pond And The Stream [Demo]
TTITLE8=Fotheringay - Winter Winds [Demo]
TTITLE9=Fotheringay - Wild Mountain Thyme
TTITLE10=Fotheringay - The Lowlands Of Holland
TTITLE11=Sandy Denny - Wretched Wilbur [Demo]
TTITLE12=Sandy Denny - The Optimist [Demo]
TTITLE13=Sandy Denny - Late November
TTITLE14=Sandy Denny - The North Star Grassman And The Ravens
TTITLE15=Sandy Denny - Next Time Around
TTITLE16=Sandy Denny - John The Gun
TTITLE17=The Bunch - Love's Made A Fool Of You [Demo]
TTITLE18=The Bunch - When Will I Be Loved [Demo]
TTITLE19=The Bunch - Learning The Game [Demo]
EXTD=
EXTT0=
EXTT1=
EXTT2=
EXTT3=
EXTT4=
EXTT5=
EXTT6=
EXTT7=
EXTT8=
EXTT9=
EXTT10=
EXTT11=
EXTT12=
EXTT13=
EXTT14=
EXTT15=
EXTT16=
EXTT17=
EXTT18=
EXTT19=
PLAYORDER=
